<?xml version="1.0" standalone="no"?>
<!DOCTYPE svg PUBLIC "-//W3C//DTD SVG 20010904//EN"
 "http://www.w3.org/TR/2001/REC-SVG-20010904/DTD/svg10.dtd">
<svg version="1.0" xmlns="http://www.w3.org/2000/svg"
 width="1000.000000pt" height="1000.000000pt" viewBox="0 0 1000.000000 1000.000000"
 preserveAspectRatio="xMidYMid meet">
<metadata>
Created by potrace 1.14, written by Peter Selinger 2001-2017
</metadata>
<g transform="translate(0.000000,1000.000000) scale(0.100000,-0.100000)"
fill="#000000" stroke="none">
<path d="M1655 5013 c-417 -1308 -760 -2384 -763 -2390 -3 -10 128 -13 635
-13 l638 0 99 395 98 395 713 0 c671 0 714 -1 719 -17 11 -37 196 -760 196
-767 0 -3 295 -6 655 -6 360 0 655 2 655 5 0 3 -338 1064 -750 2358 -413 1294
-756 2367 -761 2385 l-11 32 -682 0 -682 0 -759 -2377z m1650 282 c119 -456
218 -838 221 -847 5 -17 -21 -18 -440 -18 -273 0 -446 4 -446 9 0 13 428 1671
436 1691 4 8 8 11 10 5 2 -5 100 -383 219 -840z"/>
<path d="M5380 5000 l0 -2391 1018 4 c878 3 1031 6 1118 20 234 37 507 113
627 174 364 183 671 572 826 1045 90 273 128 558 138 1028 10 464 -31 834
-133 1199 -129 459 -378 832 -699 1046 -196 130 -388 199 -675 241 -101 15
-242 18 -1167 21 l-1053 4 0 -2391z m1709 1300 c201 -21 365 -87 480 -195 201
-188 281 -509 281 -1130 0 -534 -46 -787 -182 -1002 -49 -78 -141 -164 -210
-196 -124 -58 -268 -77 -580 -77 l-248 0 0 1305 0 1305 179 0 c98 0 224 -5
280 -10z"/>
</g>
</svg>
